<?xml version="1.0" encoding="UTF-8"?>
<svg xmlns="http://www.w3.org/2000/svg" width="1200" height="630" viewBox="0 0 1200 630">
  <defs>
    <linearGradient id="bg" x1="0%" y1="0%" x2="100%" y2="100%">
      <stop offset="0%" stop-color="#312e81"/>
      <stop offset="100%" stop-color="#4338ca"/>
    </linearGradient>
  </defs>
  <rect width="1200" height="630" fill="url(#bg)"/>

  <!-- India silhouette (dissolved from LGD_States via DuckDB-spatial).
       Filled at low opacity + thin stroke reads as a watermark; the
       outline-only version was too faint to show the Himalayan arc. -->
  <g>
    <path d="M 101.0 287.3 L 101.5 283.6 L 103.6 282.1 L 109.4 282.0 L 110.4 277.1 L 113.3 278.4 L 122.0 277.4 L 124.1 279.1 L 128.3 279.2 L 129.6 277.4 L 136.3 275.5 L 136.7 278.0 L 137.8 278.4 L 143.6 276.4 L 142.5 273.0 L 143.9 271.5 L 141.0 264.8 L 137.8 261.2 L 137.7 256.8 L 132.0 256.5 L 129.4 253.2 L 130.5 244.2 L 125.3 243.6 L 120.7 241.3 L 121.8 234.7 L 128.3 229.1 L 129.9 225.5 L 133.5 222.5 L 136.7 222.5 L 139.0 226.5 L 140.8 227.0 L 155.9 223.2 L 156.4 220.8 L 160.5 216.9 L 163.2 211.3 L 171.5 207.4 L 176.4 199.5 L 178.1 193.9 L 186.4 190.3 L 185.2 187.8 L 186.0 185.9 L 194.9 178.4 L 194.8 173.8 L 196.4 171.6 L 194.2 167.8 L 196.0 165.2 L 200.1 162.8 L 205.6 162.0 L 207.1 160.1 L 202.9 156.7 L 197.2 156.5 L 196.3 152.5 L 192.3 152.4 L 181.7 147.6 L 180.6 143.4 L 181.5 140.7 L 180.6 139.7 L 180.9 135.7 L 178.1 128.6 L 178.9 125.6 L 181.8 125.4 L 183.0 122.6 L 187.4 121.0 L 188.5 117.5 L 182.7 116.1 L 183.7 111.8 L 178.2 111.1 L 174.2 108.8 L 173.6 106.6 L 167.6 107.2 L 165.0 105.5 L 166.1 100.7 L 172.9 96.6 L 173.3 94.1 L 184.9 94.0 L 182.2 91.0 L 187.8 92.3 L 197.2 88.4 L 200.6 90.7 L 206.9 88.8 L 208.8 92.2 L 213.2 95.8 L 226.3 101.6 L 228.7 103.9 L 227.7 105.2 L 228.7 106.7 L 236.8 108.7 L 238.8 112.2 L 244.8 112.2 L 245.5 110.3 L 248.2 111.1 L 250.2 108.6 L 252.6 107.7 L 260.5 106.1 L 263.2 106.9 L 264.3 104.9 L 266.2 104.6 L 272.1 107.5 L 275.9 107.0 L 277.7 109.5 L 280.3 110.6 L 280.9 112.5 L 276.7 123.9 L 272.8 125.0 L 272.7 127.2 L 268.9 127.3 L 269.7 130.6 L 267.4 134.0 L 263.5 133.4 L 259.8 134.5 L 262.5 139.7 L 259.7 140.0 L 260.3 143.1 L 262.4 144.5 L 267.6 145.0 L 266.4 148.9 L 270.0 153.0 L 267.3 155.9 L 265.5 155.1 L 260.5 158.7 L 258.0 157.1 L 257.0 154.0 L 253.9 154.7 L 252.4 155.6 L 254.1 157.5 L 253.4 159.7 L 255.1 160.2 L 257.9 163.7 L 256.7 166.7 L 258.8 169.4 L 257.3 170.8 L 259.4 174.1 L 261.8 171.5 L 262.9 171.9 L 265.6 176.3 L 269.4 179.0 L 273.7 178.7 L 279.3 181.8 L 279.3 184.7 L 291.0 189.5 L 281.4 196.9 L 281.8 199.1 L 279.6 201.7 L 280.2 204.9 L 277.9 206.5 L 276.8 210.3 L 281.3 213.3 L 284.1 212.5 L 293.6 217.3 L 295.4 220.1 L 303.6 224.7 L 306.3 223.7 L 311.9 227.3 L 315.7 226.7 L 316.6 230.0 L 322.8 230.7 L 324.5 232.4 L 325.7 230.3 L 331.9 231.7 L 336.9 229.7 L 339.5 231.7 L 344.0 232.4 L 345.0 234.3 L 344.6 236.8 L 352.4 239.3 L 352.7 240.9 L 358.8 239.3 L 360.4 240.2 L 360.6 242.6 L 362.5 243.4 L 364.7 242.3 L 369.2 243.0 L 375.1 245.8 L 380.1 243.5 L 380.6 245.6 L 383.5 246.7 L 392.2 245.0 L 394.0 246.5 L 396.5 241.2 L 395.5 237.8 L 393.6 235.7 L 394.4 230.1 L 396.5 225.8 L 396.0 223.2 L 399.7 222.8 L 402.9 220.7 L 406.2 222.4 L 407.0 224.8 L 405.5 230.5 L 407.5 232.7 L 405.5 235.1 L 410.7 240.2 L 414.2 239.4 L 420.3 241.7 L 425.4 241.0 L 429.5 238.8 L 433.9 240.8 L 448.4 240.2 L 451.3 238.6 L 453.8 239.6 L 454.6 238.6 L 453.2 235.9 L 453.4 231.2 L 447.7 230.4 L 446.4 228.1 L 447.5 225.8 L 446.3 224.8 L 450.3 225.3 L 451.8 226.6 L 456.2 224.5 L 457.7 225.7 L 461.3 225.0 L 463.7 222.9 L 463.1 220.7 L 468.0 218.0 L 470.8 217.8 L 470.3 216.2 L 472.6 213.2 L 481.6 212.7 L 485.7 206.6 L 490.5 204.6 L 491.8 202.8 L 494.5 205.3 L 503.2 207.4 L 505.8 204.0 L 513.2 201.0 L 515.4 204.2 L 517.7 204.0 L 514.2 206.8 L 514.6 208.8 L 519.6 206.8 L 519.1 208.1 L 521.1 211.2 L 517.2 214.7 L 516.6 216.9 L 517.9 217.4 L 521.5 215.9 L 526.6 218.1 L 528.4 217.5 L 532.8 220.0 L 531.8 220.6 L 532.9 222.5 L 532.3 224.5 L 530.6 224.2 L 525.4 228.5 L 525.5 230.7 L 529.2 235.3 L 528.9 236.2 L 524.7 234.7 L 523.4 232.3 L 516.4 233.2 L 512.5 234.8 L 503.6 241.9 L 499.6 243.2 L 498.5 245.4 L 500.0 251.2 L 497.6 253.7 L 497.9 256.1 L 491.9 261.3 L 491.2 263.8 L 493.5 265.1 L 493.1 268.0 L 487.4 277.1 L 484.8 284.0 L 477.9 281.7 L 475.1 282.7 L 472.8 280.7 L 474.2 286.4 L 473.5 294.6 L 472.1 296.5 L 469.7 296.2 L 469.2 300.9 L 470.7 307.4 L 469.9 308.8 L 468.6 308.6 L 467.9 311.6 L 466.3 312.3 L 463.6 309.3 L 461.8 311.7 L 460.6 301.5 L 458.3 297.5 L 458.6 292.6 L 456.8 286.9 L 455.2 286.0 L 454.1 287.1 L 452.3 286.6 L 452.5 289.5 L 449.5 292.2 L 450.6 295.2 L 447.3 297.5 L 444.6 293.1 L 444.4 295.7 L 443.2 295.1 L 440.4 287.5 L 441.5 282.8 L 443.6 281.7 L 443.6 280.1 L 446.6 280.5 L 448.0 278.3 L 449.1 279.3 L 449.2 278.0 L 451.4 279.2 L 451.7 276.7 L 454.6 275.9 L 457.0 271.1 L 456.3 268.4 L 460.1 268.6 L 459.0 266.7 L 453.9 264.3 L 447.6 265.3 L 441.0 264.1 L 429.9 264.9 L 420.9 262.7 L 421.2 253.5 L 419.6 250.1 L 418.0 250.0 L 417.2 252.8 L 413.8 252.2 L 410.9 250.2 L 410.2 248.3 L 403.7 248.4 L 403.6 246.3 L 401.3 245.3 L 401.6 247.1 L 396.6 250.2 L 395.5 254.8 L 397.9 255.0 L 402.2 259.3 L 405.9 259.2 L 406.4 261.5 L 408.8 263.1 L 407.5 264.6 L 400.9 264.1 L 399.8 267.9 L 398.7 269.0 L 396.3 267.9 L 394.3 271.9 L 398.8 276.1 L 404.8 277.7 L 405.3 282.0 L 402.8 284.0 L 402.3 286.2 L 405.7 289.2 L 404.7 292.7 L 408.6 293.3 L 406.8 296.8 L 408.2 298.8 L 407.8 302.8 L 410.1 309.0 L 408.9 312.8 L 410.0 316.7 L 407.8 317.4 L 406.7 316.6 L 406.9 318.3 L 404.5 317.7 L 403.8 313.7 L 402.8 317.1 L 400.8 316.3 L 401.8 318.3 L 399.1 316.9 L 396.5 318.1 L 394.4 316.1 L 396.6 310.2 L 390.8 315.8 L 380.8 318.6 L 376.8 323.5 L 379.1 329.7 L 380.6 329.8 L 376.0 333.0 L 376.3 335.4 L 372.1 338.4 L 370.4 341.4 L 359.0 345.0 L 348.6 351.6 L 336.7 365.8 L 329.0 369.9 L 323.2 376.4 L 313.6 381.4 L 310.0 384.4 L 310.3 386.5 L 309.9 385.3 L 309.1 386.8 L 310.4 387.0 L 310.7 389.5 L 309.9 391.7 L 301.1 395.5 L 295.0 395.5 L 289.6 404.2 L 287.8 404.3 L 287.1 402.1 L 285.8 401.7 L 280.0 404.5 L 276.5 413.5 L 278.7 420.8 L 277.7 428.0 L 280.9 440.1 L 278.1 452.1 L 274.0 458.2 L 272.2 464.6 L 273.4 468.6 L 274.0 484.0 L 265.3 484.7 L 264.9 488.0 L 259.5 496.3 L 262.0 498.9 L 265.8 498.5 L 268.3 501.5 L 265.0 499.6 L 262.9 499.4 L 262.2 500.5 L 262.6 499.6 L 260.7 499.3 L 254.7 501.9 L 252.3 501.7 L 249.0 504.5 L 249.6 505.3 L 247.2 512.6 L 239.5 517.0 L 236.0 516.3 L 231.5 512.9 L 224.6 504.8 L 212.6 468.5 L 209.5 463.4 L 204.7 458.9 L 199.2 446.5 L 196.1 431.8 L 192.4 422.3 L 191.0 419.2 L 187.8 417.4 L 188.5 416.6 L 185.7 413.5 L 185.4 409.7 L 183.9 408.9 L 181.6 402.3 L 179.0 399.2 L 176.8 391.9 L 176.4 383.8 L 171.2 367.1 L 170.0 360.1 L 171.3 356.2 L 169.3 357.1 L 169.1 350.8 L 166.9 343.2 L 170.7 332.3 L 168.1 325.1 L 166.6 324.6 L 166.0 320.0 L 167.4 318.6 L 166.0 318.2 L 166.8 316.2 L 165.4 316.1 L 166.7 312.9 L 165.3 312.3 L 165.6 308.8 L 160.7 312.0 L 162.2 316.9 L 159.2 323.2 L 150.7 327.6 L 140.1 330.7 L 130.6 325.6 L 112.2 306.7 L 114.2 304.1 L 116.2 305.0 L 116.3 307.7 L 118.2 306.2 L 122.0 305.8 L 122.4 304.5 L 124.1 304.1 L 125.1 305.1 L 128.6 303.1 L 130.2 303.6 L 132.1 300.5 L 134.8 298.8 L 134.3 297.0 L 140.5 293.3 L 132.6 293.4 L 131.0 294.9 L 131.4 297.3 L 120.2 300.0 L 116.1 299.0 L 107.6 293.6 L 108.8 292.6 L 105.7 288.9 L 106.0 285.8 L 102.6 288.3 L 101.0 287.3 Z M 407.6 246.2 L 409.7 247.7 L 409.6 246.5 L 407.6 246.2 Z M 399.2 244.5 L 401.0 245.0 L 399.8 243.8 L 399.2 244.5 Z M 106.6 285.1 L 107.3 285.8 L 108.0 284.6 L 106.6 285.1 Z M 477.9 529.4 L 480.1 528.5 L 481.7 532.7 L 480.0 536.6 L 477.3 532.8 L 477.9 529.4 Z M 476.6 528.3 L 477.9 526.2 L 479.0 526.9 L 477.6 529.2 L 476.6 528.3 Z M 474.1 515.5 L 475.7 514.7 L 476.1 519.2 L 474.1 515.5 Z M 472.1 518.7 L 473.5 517.7 L 474.6 519.8 L 473.1 519.9 L 472.1 518.7 Z M 468.7 513.7 L 469.4 512.7 L 469.6 514.1 L 471.3 514.8 L 469.9 515.2 L 468.7 513.7 Z M 468.8 454.2 L 469.6 456.9 L 468.0 458.9 L 468.9 462.3 L 466.5 459.0 L 468.8 454.2 Z M 460.3 461.6 L 463.2 455.1 L 462.7 444.7 L 464.5 444.9 L 464.8 437.9 L 466.0 435.3 L 466.6 436.2 L 467.9 435.5 L 467.2 434.6 L 468.0 434.2 L 468.9 434.6 L 468.3 437.6 L 469.3 437.9 L 466.7 445.8 L 466.9 455.8 L 464.6 458.2 L 463.0 470.3 L 463.1 468.8 L 460.8 468.0 L 462.0 467.4 L 460.7 464.9 L 461.8 464.5 L 460.3 461.6 Z M 463.4 501.0 L 464.3 499.4 L 465.3 500.8 L 464.5 501.6 L 463.4 501.0 Z M 458.4 477.1 L 460.2 475.2 L 461.3 475.7 L 461.8 478.4 L 460.8 481.0 L 458.5 480.7 L 458.4 477.1 Z M 455.7 465.2 L 456.9 465.0 L 457.0 466.2 L 455.7 465.2 Z" fill="#a5b4fc" fill-opacity="0.22" fill-rule="evenodd"
          stroke="#a5b4fc" stroke-opacity="0.5" stroke-width="1.5" stroke-linejoin="round"/>
  </g>

  <!-- Wordmark + tagline, right-aligned column -->
  <g font-family="ui-sans-serif, -apple-system, 'Segoe UI', system-ui, sans-serif">
    <!-- Single text element so "bhar" + "atlas" flow inline; tspan
         only changes the colour, x position auto-advances. -->
    <text x="640" y="305" font-size="120" font-weight="800" letter-spacing="-3" fill="#f5f3ff">bhar<tspan fill="#fbbf24">atlas</tspan></text>

    <!-- Tagline -->
    <text x="643" y="360" font-size="32" font-weight="500" fill="#f5f3ff" opacity="0.94">View. Verify. Publish.</text>

    <!-- Sub-tagline -->
    <text x="643" y="402" font-size="22" font-weight="400" fill="#f5f3ff" opacity="0.78">drop a geo file → see it on a map</text>

    <!-- Footer line -->
    <text x="643" y="520" font-size="18" font-weight="400" fill="#f5f3ff" opacity="0.58">
      <tspan>open licences</tspan>
      <tspan x="643" y="550">nothing uploaded until you click Publish</tspan>
    </text>
  </g>
</svg>
